<svg width="800" height="800" viewBox="0 0 800 800" fill="none" xmlns="http://www.w3.org/2000/svg">
<path d="M396.559 183.364L399.829 184.717L403.144 183.48C462.471 161.359 512.184 156.98 553.299 165.088C594.328 173.18 627.452 193.83 653.527 222.933C705.972 281.466 730 374.428 730 466.888C730 647.998 583.481 764.765 400 764.765C216.519 764.765 70 647.998 70 466.888C70 374.896 99.7752 281.837 155.281 223.109C182.929 193.856 216.889 173.168 256.837 165.079C296.793 156.99 343.407 161.37 396.559 183.364Z" fill="#FF6565" stroke="black" stroke-width="18"/>
<path d="M399.042 184.081C411.017 161.3 429.616 97.937 408.213 26.7349" stroke="black" stroke-width="18" stroke-linecap="round" stroke-linejoin="round"/>
<path d="M633.733 126.039C581.616 57.7217 473.096 46.9936 424.25 124.413C421.767 128.348 421.349 133.309 424.032 137.111C437.8 156.621 482.841 187.858 527.808 185.414C573.018 182.957 624.19 153.449 635.082 136.087C637.076 132.908 636.009 129.022 633.733 126.039Z" fill="#88DAAB" stroke="black" stroke-width="18" stroke-linecap="round" stroke-linejoin="round"/>
<circle cx="448.526" cy="415.628" r="44.2601" fill="white" stroke="black" stroke-width="14"/>
<circle cx="449.629" cy="415.628" r="13.3938" fill="black" stroke="black" stroke-width="14"/>
<circle cx="351.474" cy="415.628" r="44.2601" fill="white" stroke="black" stroke-width="14"/>
<circle cx="351.474" cy="415.628" r="13.3938" fill="black" stroke="black" stroke-width="14"/>
<path d="M495.52 502.428C495.52 512.717 487.06 523.889 469.145 532.905C451.636 541.718 426.958 547.372 399.317 547.372C371.675 547.372 346.997 541.718 329.488 532.905C311.573 523.889 303.113 512.717 303.113 502.428C303.113 492.14 311.573 480.968 329.488 471.951C346.997 463.139 371.675 457.485 399.317 457.485C426.958 457.485 451.636 463.139 469.145 471.951C487.06 480.968 495.52 492.14 495.52 502.428Z" fill="#FFF97D" stroke="black" stroke-width="14"/>
</svg>
