<svg width="800" height="800" viewBox="0 0 800 800" fill="none" xmlns="http://www.w3.org/2000/svg">
<path d="M397.324 241.968L399.867 243.021L402.446 242.059C445.793 225.896 482.082 222.709 512.068 228.622C541.986 234.523 566.14 249.579 585.162 270.809C623.433 313.523 641 381.413 641 449C641 581.211 534.055 666.5 400 666.5C265.945 666.5 159 581.211 159 449C159 381.777 180.761 313.812 221.275 270.946C241.45 249.599 266.22 234.514 295.35 228.615C324.485 222.716 358.502 225.904 397.324 241.968Z" fill="#FF6565" stroke="black" stroke-width="14"/>
<path d="M399.299 242.109C408.059 225.443 421.666 179.089 406.008 127" stroke="black" stroke-width="14" stroke-linecap="round" stroke-linejoin="round"/>
<path d="M570.038 198.418C531.936 150.027 454.725 142.436 418.803 196.811C416.239 200.693 415.88 205.667 418.758 209.323C430.029 223.636 461.789 244.807 493.5 243.084C525.481 241.346 561.54 221.104 571.092 208.285C573.334 205.276 572.359 201.366 570.038 198.418Z" fill="#88DAAB" stroke="black" stroke-width="12" stroke-linecap="round" stroke-linejoin="round"/>
<circle cx="435.5" cy="411.5" r="31.5" fill="white" stroke="black" stroke-width="12"/>
<circle cx="436.306" cy="411.5" r="8.91935" fill="black" stroke="black" stroke-width="12"/>
<circle cx="364.5" cy="411.5" r="31.5" fill="white" stroke="black" stroke-width="12"/>
<circle cx="364.5" cy="411.5" r="8.91935" fill="black" stroke="black" stroke-width="12"/>
<path d="M469 475C469 482.017 463.199 489.962 450.189 496.511C437.526 502.884 419.614 507 399.5 507C379.386 507 361.474 502.884 348.811 496.511C335.801 489.962 330 482.017 330 475C330 467.983 335.801 460.038 348.811 453.489C361.474 447.116 379.386 443 399.5 443C419.614 443 437.526 447.116 450.189 453.489C463.199 460.038 469 467.983 469 475Z" fill="#FFF97D" stroke="black" stroke-width="12"/>
</svg>
