<svg width="800" height="800" viewBox="0 0 800 800" fill="none" xmlns="http://www.w3.org/2000/svg">
<path fill-rule="evenodd" clip-rule="evenodd" d="M453.03 83.1274C434.228 49.5034 419.391 22.9706 413.377 24.9549C396.165 30.6337 343.715 69.8645 353.435 76.2886C386.822 98.3538 407.149 125.066 421.538 149.99C420.988 152.075 420.603 154.234 420.399 156.452C419.537 165.832 418.701 175.841 417.82 186.381C406.232 325.09 386.975 555.583 199.629 650.928C159.003 671.603 127.584 715.001 165.385 740.478C265.362 807.861 538.793 792.033 620.767 551.003C689.647 348.476 609.305 168.174 478.993 128.557C469.866 113.235 461.084 97.5307 453.03 83.1274Z" fill="#FFF97D"/>
<path d="M413.377 24.9549L416.197 33.5017L416.197 33.5017L413.377 24.9549ZM453.03 83.1274L445.175 87.5199L445.175 87.5199L453.03 83.1274ZM353.435 76.2886L348.473 83.7969L348.473 83.7969L353.435 76.2886ZM421.538 149.99L430.24 152.286C430.846 149.99 430.52 147.547 429.332 145.491L421.538 149.99ZM420.399 156.452L429.362 157.275L429.362 157.275L420.399 156.452ZM417.82 186.381L408.852 185.631L408.852 185.631L417.82 186.381ZM199.629 650.928L203.711 658.949L203.711 658.949L199.629 650.928ZM165.385 740.478L170.415 733.015L170.415 733.015L165.385 740.478ZM620.767 551.003L612.246 548.105L612.246 548.105L620.767 551.003ZM478.993 128.557L471.261 133.163C472.408 135.088 474.232 136.516 476.375 137.168L478.993 128.557ZM416.197 33.5017C414.821 33.9557 413.589 33.8951 412.75 33.7181C411.973 33.5543 411.527 33.2945 411.46 33.2549C411.389 33.2135 411.847 33.4968 412.861 34.5925C414.835 36.7245 417.495 40.3587 420.839 45.5571C427.464 55.856 435.717 70.6066 445.175 87.5199L460.885 78.7349C451.541 62.0242 442.975 46.6964 435.977 35.8189C432.51 30.4292 429.158 25.7008 426.071 22.3652C424.555 20.7271 422.72 19.0004 420.614 17.7564C418.624 16.581 414.89 14.9786 410.557 16.408L416.197 33.5017ZM358.397 68.7802C359.625 69.5913 360.701 70.9897 361.094 72.7242C361.423 74.1734 361.111 75.1341 361.095 75.1868C361.064 75.2831 361.135 75.0347 361.531 74.3965C361.907 73.7904 362.466 73.0087 363.247 72.0537C366.476 68.1048 372.09 62.8806 378.954 57.3502C385.721 51.8971 393.316 46.455 400.218 42.0591C407.328 37.5304 413.033 34.5457 416.197 33.5017L410.557 16.408C405.116 18.2034 397.809 22.2521 390.548 26.8771C383.078 31.6349 374.941 37.4669 367.66 43.3343C360.474 49.1244 353.722 55.2674 349.313 60.6585C347.21 63.2301 345 66.387 343.934 69.7559C343.379 71.5072 342.921 73.975 343.541 76.7073C344.225 79.7251 346.031 82.1828 348.473 83.7969L358.397 68.7802ZM429.332 145.491C414.464 119.736 393.266 91.8247 358.397 68.7802L348.473 83.7969C380.378 104.883 399.834 130.396 413.744 154.49L429.332 145.491ZM429.362 157.275C429.52 155.557 429.817 153.889 430.24 152.286L412.836 147.695C412.159 150.26 411.687 152.912 411.437 155.628L429.362 157.275ZM426.789 187.13C427.67 176.582 428.503 166.611 429.362 157.275L411.437 155.628C410.571 165.052 409.731 175.1 408.852 185.631L426.789 187.13ZM203.711 658.949C300.146 609.871 352.999 526.083 383.151 437.825C413.244 349.739 421.005 256.357 426.789 187.13L408.852 185.631C403.047 255.113 395.386 346.333 366.117 432.006C336.907 517.509 286.458 596.64 195.547 642.907L203.711 658.949ZM170.415 733.015C162.494 727.676 159.019 722.015 157.87 716.731C156.686 711.294 157.683 704.942 161.166 697.888C168.252 683.542 184.51 668.721 203.711 658.949L195.547 642.907C174.122 653.811 154.357 671.026 145.027 689.917C140.303 699.482 137.994 710.048 140.281 720.559C142.602 731.224 149.376 740.542 160.355 747.941L170.415 733.015ZM612.246 548.105C572.355 665.398 486.087 727.746 397.387 752.732C308.068 777.893 217.629 764.837 170.415 733.015L160.355 747.941C213.117 783.502 309.382 796.223 402.267 770.058C495.77 743.719 587.205 677.637 629.288 553.901L612.246 548.105ZM476.375 137.168C599.948 174.736 680.197 348.308 612.246 548.105L629.288 553.901C699.096 348.644 618.663 161.612 481.611 119.946L476.375 137.168ZM445.175 87.5199C453.22 101.907 462.061 117.718 471.261 133.163L486.725 123.951C477.671 108.752 468.949 93.1546 460.885 78.7349L445.175 87.5199Z" fill="black"/>
<circle cx="550.87" cy="362.15" r="36.6917" fill="white" stroke="black" stroke-width="14"/>
<circle cx="551.81" cy="362.15" r="10.3827" fill="black" stroke="black" stroke-width="14"/>
<circle cx="468.147" cy="362.15" r="36.6917" fill="white" stroke="black" stroke-width="14"/>
<circle cx="468.147" cy="362.15" r="10.3827" fill="black" stroke="black" stroke-width="14"/>
<path d="M589.892 436.135C589.892 444.305 583.138 453.56 567.98 461.189C553.228 468.614 532.36 473.409 508.926 473.409C485.492 473.409 464.623 468.614 449.872 461.189C434.714 453.56 427.96 444.305 427.96 436.135C427.96 427.964 434.714 418.71 449.872 411.081C464.623 403.656 485.492 398.861 508.926 398.861C532.36 398.861 553.228 403.656 567.98 411.081C583.138 418.71 589.892 427.964 589.892 436.135Z" fill="#FFF97D" stroke="black" stroke-width="14"/>
</svg>
