<svg width="800" height="800" viewBox="0 0 800 800" fill="none" xmlns="http://www.w3.org/2000/svg">
<path fill-rule="evenodd" clip-rule="evenodd" d="M445.526 128.018C429.388 99.1594 416.654 76.3866 411.492 78.0897C396.719 82.9637 351.702 116.635 360.045 122.149C389.2 141.418 406.752 164.815 419.138 186.524C418.063 189.562 417.348 192.794 417.05 196.153C416.472 202.671 415.901 209.514 415.306 216.639C405.56 333.295 389.494 525.587 237.573 610.272C197.756 632.467 167.989 675.786 207.879 697.849C300.186 748.903 521.521 729.444 589.492 529.59C648.611 355.764 579.654 201.013 467.809 167.01C459.975 153.86 452.438 140.381 445.526 128.018Z" fill="#FFF97D"/>
<path d="M411.492 78.0897L413.372 83.7876L413.372 83.7876L411.492 78.0897ZM445.526 128.018L440.289 130.947L445.526 128.018ZM360.045 122.149L363.353 117.143L363.353 117.143L360.045 122.149ZM419.138 186.524L424.794 188.527C425.376 186.883 425.214 185.066 424.35 183.551L419.138 186.524ZM417.05 196.153L423.027 196.682L423.027 196.682L417.05 196.153ZM415.306 216.639L421.285 217.139L421.285 217.139L415.306 216.639ZM237.573 610.272L240.494 615.513L240.494 615.513L237.573 610.272ZM207.879 697.849L210.783 692.598L210.783 692.598L207.879 697.849ZM589.492 529.59L595.173 531.522L595.173 531.522L589.492 529.59ZM467.809 167.01L462.655 170.081C463.419 171.364 464.635 172.316 466.064 172.75L467.809 167.01ZM413.372 83.7876C411.63 84.3623 410.497 83.5953 410.723 83.7286C410.871 83.8162 411.396 84.1976 412.315 85.19C414.115 87.1352 416.465 90.3592 419.347 94.8393C425.069 103.734 432.182 116.45 440.289 130.947L450.762 125.09C442.731 110.728 435.409 97.6278 429.439 88.3472C426.475 83.7396 423.665 79.786 421.121 77.0385C419.868 75.6845 418.425 74.3408 416.826 73.3962C415.304 72.4974 412.644 71.3913 409.612 72.3918L413.372 83.7876ZM363.353 117.143C364.054 117.607 364.702 118.438 364.936 119.471C365.128 120.314 364.934 120.81 364.974 120.683C365.083 120.338 365.621 119.269 367.131 117.422C370.016 113.895 374.943 109.323 380.864 104.551C386.722 99.8312 393.293 95.123 399.271 91.3154C405.388 87.4193 410.438 84.7556 413.372 83.7876L409.612 72.3918C405.16 73.8607 399.042 77.2337 392.824 81.1941C386.468 85.243 379.536 90.2111 373.335 95.2073C367.199 100.152 361.513 105.336 357.842 109.825C356.074 111.987 354.347 114.491 353.534 117.062C353.113 118.392 352.793 120.182 353.234 122.127C353.718 124.261 354.992 126.001 356.736 127.154L363.353 117.143ZM424.35 183.551C411.649 161.292 393.515 137.077 363.353 117.143L356.736 127.154C384.885 145.758 401.854 168.339 413.927 189.498L424.35 183.551ZM423.027 196.682C423.28 193.828 423.886 191.091 424.794 188.527L413.482 184.522C412.239 188.033 411.416 191.759 411.074 195.623L423.027 196.682ZM421.285 217.139C421.88 210.011 422.451 203.183 423.027 196.682L411.074 195.623C410.494 202.16 409.921 209.018 409.326 216.14L421.285 217.139ZM240.494 615.513C318.205 572.194 360.94 501.436 385.451 427.329C409.932 353.314 416.418 275.387 421.285 217.139L409.326 216.14C404.447 274.547 398.027 351.094 374.059 423.56C350.12 495.934 308.862 563.664 234.651 605.031L240.494 615.513ZM210.783 692.598C201.84 687.652 197.5 681.937 195.849 676.294C194.173 670.561 194.979 663.899 198.298 656.591C205.02 641.794 221.253 626.238 240.494 615.513L234.651 605.031C214.076 616.5 195.516 633.701 187.373 651.628C183.26 660.682 181.615 670.374 184.332 679.662C187.075 689.04 193.972 697.013 204.975 703.099L210.783 692.598ZM583.812 527.658C550.528 625.522 479.83 679.104 406.028 702.081C331.896 725.161 255.231 717.182 210.783 692.598L204.975 703.099C252.834 729.57 332.991 737.388 409.595 713.539C486.53 689.586 560.485 633.512 595.173 531.522L583.812 527.658ZM466.064 172.75C573.416 205.387 642.311 355.652 583.812 527.658L595.173 531.522C654.91 355.875 585.893 196.638 469.555 161.269L466.064 172.75ZM440.289 130.947C447.195 143.298 454.772 156.848 462.655 170.081L472.964 163.939C465.179 150.871 457.681 137.463 450.762 125.09L440.289 130.947Z" fill="black"/>
<circle cx="532.492" cy="298.59" r="31.5" fill="white" stroke="black" stroke-width="12"/>
<circle cx="533.299" cy="298.59" r="8.91935" fill="black" stroke="black" stroke-width="12"/>
<circle cx="461.492" cy="298.59" r="31.5" fill="white" stroke="black" stroke-width="12"/>
<circle cx="461.492" cy="298.59" r="8.91935" fill="black" stroke="black" stroke-width="12"/>
<path d="M565.992 362.09C565.992 369.107 560.191 377.052 547.181 383.6C534.518 389.974 516.606 394.09 496.492 394.09C476.378 394.09 458.465 389.974 445.803 383.6C432.792 377.052 426.992 369.107 426.992 362.09C426.992 355.072 432.792 347.127 445.803 340.579C458.465 334.206 476.378 330.09 496.492 330.09C516.606 330.09 534.518 334.206 547.181 340.579C560.191 347.127 565.992 355.072 565.992 362.09Z" fill="#FFF97D" stroke="black" stroke-width="12"/>
</svg>
