<svg width="800" height="800" viewBox="0 0 800 800" fill="none" xmlns="http://www.w3.org/2000/svg">
<path d="M403 126V288" stroke="black" stroke-width="14" stroke-linecap="round" stroke-linejoin="round"/>
<path d="M337 109C365.167 117 432 128.2 474 109" stroke="black" stroke-width="14" stroke-linecap="round" stroke-linejoin="round"/>
<circle cx="401.5" cy="603.5" r="80.5" fill="#C0ADFF" stroke="black" stroke-width="14"/>
<circle cx="234.5" cy="289.5" r="80.5" fill="#C0ADFF" stroke="black" stroke-width="14"/>
<circle cx="565.5" cy="288.5" r="80.5" fill="#C0ADFF" stroke="black" stroke-width="14"/>
<circle cx="261.5" cy="408.5" r="80.5" fill="#C0ADFF" stroke="black" stroke-width="14"/>
<circle cx="338.5" cy="273.5" r="80.5" fill="#C0ADFF" stroke="black" stroke-width="14"/>
<circle cx="455.5" cy="273.5" r="80.5" fill="#C0ADFF" stroke="black" stroke-width="14"/>
<circle cx="464.5" cy="516.5" r="80.5" fill="#C0ADFF" stroke="black" stroke-width="14"/>
<circle cx="530.5" cy="409.5" r="80.5" fill="#C0ADFF" stroke="black" stroke-width="14"/>
<circle cx="336.5" cy="516.5" r="80.5" fill="#C0ADFF" stroke="black" stroke-width="14"/>
<circle cx="401.5" cy="409.5" r="80.5" fill="#C0ADFF" stroke="black" stroke-width="14"/>
<circle cx="432.5" cy="307.5" r="31.5" fill="white" stroke="black" stroke-width="12"/>
<circle cx="433.307" cy="307.5" r="8.91935" fill="black" stroke="black" stroke-width="12"/>
<circle cx="361.5" cy="307.5" r="31.5" fill="white" stroke="black" stroke-width="12"/>
<circle cx="361.5" cy="307.5" r="8.91935" fill="black" stroke="black" stroke-width="12"/>
<path d="M466 371C466 378.017 460.199 385.962 447.189 392.511C434.526 398.884 416.614 403 396.5 403C376.386 403 358.474 398.884 345.811 392.511C332.801 385.962 327 378.017 327 371C327 363.983 332.801 356.038 345.811 349.489C358.474 343.116 376.386 339 396.5 339C416.614 339 434.526 343.116 447.189 349.489C460.199 356.038 466 363.983 466 371Z" fill="#FFF97D" stroke="black" stroke-width="12"/>
</svg>
