<svg width="800" height="800" viewBox="0 0 800 800" fill="none" xmlns="http://www.w3.org/2000/svg">
<circle cx="400" cy="449.642" r="313" fill="#F8AD77" stroke="black" stroke-width="18"/>
<circle cx="287.971" cy="220.887" r="14.0875" fill="#E78C4B"/>
<circle cx="186.004" cy="316.146" r="14.0875" fill="#E78C4B"/>
<circle cx="365.788" cy="301.388" r="14.0875" fill="#E78C4B"/>
<circle cx="455.679" cy="207.471" r="14.0875" fill="#E78C4B"/>
<circle cx="254.429" cy="400.671" r="14.0875" fill="#E78C4B"/>
<circle cx="149.779" cy="478.487" r="14.0875" fill="#E78C4B"/>
<circle cx="226.254" cy="541.546" r="14.0875" fill="#E78C4B"/>
<circle cx="254.429" cy="655.588" r="14.0875" fill="#E78C4B"/>
<circle cx="337.612" cy="595.213" r="14.0875" fill="#E78C4B"/>
<circle cx="411.404" cy="693.154" r="14.0875" fill="#E78C4B"/>
<circle cx="483.854" cy="624.729" r="14.0875" fill="#E78C4B"/>
<circle cx="534.838" cy="528.129" r="14.0875" fill="#E78C4B"/>
<circle cx="642.171" cy="463.729" r="14.0875" fill="#E78C4B"/>
<circle cx="563.012" cy="406.038" r="14.0875" fill="#E78C4B"/>
<circle cx="639.487" cy="330.904" r="14.0875" fill="#E78C4B"/>
<circle cx="521.421" cy="286.629" r="14.0875" fill="#E78C4B"/>
<circle cx="611.313" cy="596.554" r="14.0875" fill="#E78C4B"/>
<path d="M408.451 182.796C420.204 160.436 438.459 98.2442 417.452 28.3583" stroke="black" stroke-width="18" stroke-linecap="round" stroke-linejoin="round"/>
<path d="M638.739 125.741C587.585 58.7968 481.222 48.2852 433.265 124.117C430.778 128.049 430.363 133.01 433.057 136.804C446.662 155.961 490.785 186.498 534.837 184.104C579.134 181.697 629.263 152.83 640.072 135.777C642.081 132.608 641.017 128.723 638.739 125.741Z" fill="#88DAAB" stroke="black" stroke-width="18" stroke-linecap="round" stroke-linejoin="round"/>
<circle cx="447.629" cy="406.038" r="43.3125" fill="white" stroke="black" stroke-width="14"/>
<circle cx="448.711" cy="406.038" r="13.0168" fill="black" stroke="black" stroke-width="14"/>
<circle cx="352.371" cy="406.038" r="43.3125" fill="white" stroke="black" stroke-width="14"/>
<circle cx="352.371" cy="406.038" r="13.0168" fill="black" stroke="black" stroke-width="14"/>
<path d="M493.625 491.233C493.625 501.256 485.379 512.188 467.809 521.031C450.645 529.67 426.444 535.217 399.329 535.217C372.214 535.217 348.013 529.67 330.849 521.031C313.279 512.188 305.033 501.256 305.033 491.233C305.033 481.21 313.279 470.278 330.849 461.435C348.013 452.796 372.214 447.25 399.329 447.25C426.444 447.25 450.645 452.796 467.809 461.435C485.379 470.278 493.625 481.21 493.625 491.233Z" fill="#FFF97D" stroke="black" stroke-width="14"/>
</svg>
