<svg width="800" height="800" viewBox="0 0 800 800" fill="none" xmlns="http://www.w3.org/2000/svg">
<path d="M403.877 45.8577V255.241" stroke="black" stroke-width="18" stroke-linecap="round" stroke-linejoin="round"/>
<path d="M318.573 23.8854C354.978 34.2253 441.36 48.7012 495.644 23.8854" stroke="black" stroke-width="18" stroke-linecap="round" stroke-linejoin="round"/>
<circle cx="401.939" cy="663.022" r="104.093" fill="#C0ADFF" stroke="black" stroke-width="18"/>
<circle cx="186.093" cy="257.18" r="104.093" fill="#C0ADFF" stroke="black" stroke-width="18"/>
<circle cx="613.907" cy="255.887" r="104.093" fill="#C0ADFF" stroke="black" stroke-width="18"/>
<circle cx="220.99" cy="410.986" r="104.093" fill="#C0ADFF" stroke="black" stroke-width="18"/>
<circle cx="320.512" cy="236.5" r="104.093" fill="#C0ADFF" stroke="black" stroke-width="18"/>
<circle cx="471.733" cy="236.5" r="104.093" fill="#C0ADFF" stroke="black" stroke-width="18"/>
<circle cx="483.366" cy="550.575" r="104.093" fill="#C0ADFF" stroke="black" stroke-width="18"/>
<circle cx="568.67" cy="412.279" r="104.093" fill="#C0ADFF" stroke="black" stroke-width="18"/>
<circle cx="317.927" cy="550.575" r="104.093" fill="#C0ADFF" stroke="black" stroke-width="18"/>
<circle cx="401.939" cy="412.279" r="104.093" fill="#C0ADFF" stroke="black" stroke-width="18"/>
<circle cx="443.113" cy="280.468" r="41.4684" fill="white" stroke="black" stroke-width="14"/>
<circle cx="444.155" cy="280.468" r="12.2831" fill="black" stroke="black" stroke-width="14"/>
<circle cx="351.346" cy="280.468" r="41.4684" fill="white" stroke="black" stroke-width="14"/>
<circle cx="351.346" cy="280.468" r="12.2831" fill="black" stroke="black" stroke-width="14"/>
<path d="M487.166 362.542C487.166 372.049 479.335 382.513 462.438 391.018C445.945 399.319 422.672 404.656 396.583 404.656C370.494 404.656 347.221 399.319 330.728 391.018C313.831 382.513 306 372.049 306 362.542C306 353.034 313.831 342.57 330.728 334.065C347.221 325.764 370.494 320.427 396.583 320.427C422.672 320.427 445.945 325.764 462.438 334.065C479.335 342.57 487.166 353.034 487.166 362.542Z" fill="#FFF97D" stroke="black" stroke-width="14"/>
</svg>
